<svg width="48" height="48" viewBox="0 0 48 48" fill="none" xmlns="http://www.w3.org/2000/svg">
<g clip-path="url(#clip0_91_56)">
<path d="M36 0H12C5.37258 0 0 5.37258 0 12V36C0 42.6274 5.37258 48 12 48H36C42.6274 48 48 42.6274 48 36V12C48 5.37258 42.6274 0 36 0Z" fill="#66F5EC"/>
<g clip-path="url(#clip1_91_56)">
<path d="M19.185 20.85C19.275 20.9318 19.38 20.9727 19.5 20.9727C19.62 20.9727 19.725 20.9318 19.815 20.85L20.985 19.7864C21.075 19.7045 21.12 19.6091 21.12 19.5C21.12 19.3909 21.075 19.2955 20.985 19.2136L19.815 18.15C19.725 18.0682 19.62 18.0273 19.5 18.0273C19.38 18.0273 19.275 18.0682 19.185 18.15L18.015 19.2136C17.925 19.2955 17.88 19.3909 17.88 19.5C17.88 19.6091 17.925 19.7045 18.015 19.7864L19.185 20.85ZM28.05 19.9091C28.425 19.9091 28.7438 19.7898 29.0063 19.5511C29.2688 19.3125 29.4 19.0227 29.4 18.6818C29.4 18.3409 29.2688 18.0511 29.0063 17.8125C28.7438 17.5739 28.425 17.4545 28.05 17.4545C27.675 17.4545 27.3563 17.5739 27.0938 17.8125C26.8313 18.0511 26.7 18.3409 26.7 18.6818C26.7 19.0227 26.8313 19.3125 27.0938 19.5511C27.3563 19.7898 27.675 19.9091 28.05 19.9091ZM18.6 33C18.345 33 18.1313 32.9216 17.9588 32.7648C17.7863 32.608 17.7 32.4136 17.7 32.1818V31.2818C17.7 30.8045 17.8463 30.3614 18.1388 29.9523C18.4313 29.5432 18.8175 29.2364 19.2975 29.0318C20.0325 28.7182 20.7975 28.483 21.5925 28.3261C22.3875 28.1693 23.19 28.0909 24 28.0909C24.81 28.0909 25.6125 28.1693 26.4075 28.3261C27.2025 28.483 27.9675 28.7182 28.7025 29.0318C29.1825 29.2364 29.5688 29.5432 29.8613 29.9523C30.1538 30.3614 30.3 30.8045 30.3 31.2818V32.1818C30.3 32.4136 30.2138 32.608 30.0413 32.7648C29.8688 32.9216 29.655 33 29.4 33H18.6ZM24 27.2727C23.13 27.2727 22.3875 26.9932 21.7725 26.4341C21.1575 25.875 20.85 25.2 20.85 24.4091C20.85 23.6182 21.1575 22.9432 21.7725 22.3841C22.3875 21.825 23.13 21.5455 24 21.5455C24.87 21.5455 25.6125 21.825 26.2275 22.3841C26.8425 22.9432 27.15 23.6182 27.15 24.4091C27.15 25.2 26.8425 25.875 26.2275 26.4341C25.6125 26.9932 24.87 27.2727 24 27.2727ZM19.7025 25.6364H16.8C16.305 25.6364 15.8813 25.4761 15.5288 25.1557C15.1762 24.8352 15 24.45 15 24V16.6364C15 16.1864 15.1762 15.8011 15.5288 15.4807C15.8813 15.1602 16.305 15 16.8 15H31.2C31.695 15 32.1188 15.1602 32.4713 15.4807C32.8238 15.8011 33 16.1864 33 16.6364V24C33 24.45 32.8238 24.8352 32.4713 25.1557C32.1188 25.4761 31.695 25.6364 31.2 25.6364H28.2975C28.3875 25.3636 28.4475 25.0909 28.4775 24.8182C28.5075 24.5455 28.5075 24.2727 28.4775 24C28.3575 22.9636 27.8738 22.0909 27.0263 21.3818C26.1788 20.6727 25.17 20.3182 24 20.3182C22.83 20.3182 21.8213 20.6727 20.9738 21.3818C20.1263 22.0909 19.6425 22.9636 19.5225 24C19.4925 24.2727 19.4925 24.5455 19.5225 24.8182C19.5525 25.0909 19.6125 25.3636 19.7025 25.6364Z" fill="black"/>
</g>
</g>
<defs>
<clipPath id="clip0_91_56">
<rect width="48" height="48" fill="white"/>
</clipPath>
<clipPath id="clip1_91_56">
<rect width="96" height="96" fill="white" transform="translate(-24 -24)"/>
</clipPath>
</defs>
</svg>
