<svg width="48" height="48" viewBox="0 0 48 48" fill="none" xmlns="http://www.w3.org/2000/svg">
<g clip-path="url(#clip0_91_51)">
<path d="M36 0H12C5.37258 0 0 5.37258 0 12V36C0 42.6274 5.37258 48 12 48H36C42.6274 48 48 42.6274 48 36V12C48 5.37258 42.6274 0 36 0Z" fill="#FF6442"/>
<g clip-path="url(#clip1_91_51)">
<path d="M22.7143 20.8829H21.2357C21 20.8829 20.8179 20.8052 20.6893 20.6498C20.5607 20.4945 20.5607 20.3391 20.6893 20.1838L24.675 15.1271C24.7607 15.0184 24.8839 14.9795 25.0446 15.0106C25.2054 15.0417 25.2857 15.1193 25.2857 15.2436V19.0187H26.7643C27 19.0187 27.1821 19.0963 27.3107 19.2517C27.4393 19.407 27.4393 19.5624 27.3107 19.7177L23.325 24.7744C23.2393 24.8832 23.1161 24.922 22.9554 24.8909C22.7946 24.8599 22.7143 24.7822 22.7143 24.6579V20.8829ZM24 33.0002C21.0643 33.0002 18.8304 32.7245 17.2982 32.173C15.7661 31.6215 15 30.8098 15 29.7379C15 29.2874 15.1393 28.8757 15.4179 28.5028C15.6964 28.13 16.1143 27.8115 16.6714 27.5474C16.5429 27.6717 16.4411 27.8232 16.3661 28.0018C16.2911 28.1805 16.2536 28.3786 16.2536 28.596C16.2536 29.1864 16.5482 29.6524 17.1375 29.9942C17.7268 30.336 18.4339 30.5923 19.2589 30.7632C20.0839 30.9341 20.9357 31.0389 21.8143 31.0778C22.6929 31.1166 23.4214 31.136 24 31.136C24.5786 31.136 25.3071 31.1166 26.1857 31.0778C27.0643 31.0389 27.9161 30.9341 28.7411 30.7632C29.5661 30.5923 30.2732 30.336 30.8625 29.9942C31.4518 29.6524 31.7464 29.1864 31.7464 28.596C31.7464 28.3786 31.7089 28.1805 31.6339 28.0018C31.5589 27.8232 31.4571 27.6717 31.3286 27.5474C31.8857 27.8115 32.3036 28.13 32.5821 28.5028C32.8607 28.8757 33 29.2874 33 29.7379C33 30.8098 32.2339 31.6215 30.7018 32.173C29.1696 32.7245 26.9357 33.0002 24 33.0002ZM24 30.2039C22.0286 30.2039 20.4643 30.0369 19.3071 29.7029C18.15 29.3689 17.5714 28.9145 17.5714 28.3397C17.5714 27.796 18.1661 27.3494 19.3554 26.9998C20.5446 26.6503 22.0929 26.4755 24 26.4755C25.9714 26.4755 27.5357 26.6425 28.6929 26.9765C29.85 27.3105 30.4286 27.7649 30.4286 28.3397C30.4286 28.9145 29.85 29.3689 28.6929 29.7029C27.5357 30.0369 25.9714 30.2039 24 30.2039Z" fill="black"/>
</g>
</g>
<defs>
<clipPath id="clip0_91_51">
<rect width="48" height="48" fill="white"/>
</clipPath>
<clipPath id="clip1_91_51">
<rect width="96" height="96" fill="white" transform="translate(-24 -24)"/>
</clipPath>
</defs>
</svg>
