<svg width="48" height="48" viewBox="0 0 48 48" fill="none" xmlns="http://www.w3.org/2000/svg">
<g clip-path="url(#clip0_91_46)">
<path d="M36 0H12C5.37258 0 0 5.37258 0 12V36C0 42.6274 5.37258 48 12 48H36C42.6274 48 48 42.6274 48 36V12C48 5.37258 42.6274 0 36 0Z" fill="#FF6442"/>
<g clip-path="url(#clip1_91_46)">
<g clip-path="url(#clip2_91_46)">
<path d="M31.3075 22.39L32.3981 21.33C33.2006 20.55 33.2006 19.28 32.3981 18.5L30.9474 17.09C30.1449 16.31 28.8382 16.31 28.0357 17.09L26.9451 18.15L31.3075 22.39ZM25.4841 19.56L16.0289 28.76V33H20.3913L29.8465 23.81L25.4841 19.56ZM31.4618 29.5C31.4618 31.69 28.8485 33 26.3175 33C25.7516 33 25.2887 32.55 25.2887 32C25.2887 31.45 25.7516 31 26.3175 31C27.902 31 29.4041 30.27 29.4041 29.5C29.4041 29.03 28.9103 28.63 28.1386 28.3L29.6613 26.82C30.7622 27.45 31.4618 28.29 31.4618 29.5ZM16.6256 25.35C15.6276 24.79 15 24.06 15 23C15 21.2 16.9446 20.37 18.6628 19.64C19.7225 19.18 21.1732 18.56 21.1732 18C21.1732 17.59 20.3707 17 19.1155 17C17.8191 17 17.2635 17.61 17.2326 17.64C16.8725 18.05 16.2243 18.1 15.7922 17.76C15.3704 17.42 15.2881 16.81 15.6379 16.38C15.7511 16.24 16.8108 15 19.1155 15C21.4201 15 23.2309 16.32 23.2309 18C23.2309 19.87 21.2452 20.72 19.4859 21.47C18.5187 21.88 17.0577 22.5 17.0577 23C17.0577 23.31 17.5001 23.6 18.1586 23.86L16.6256 25.35Z" fill="black"/>
</g>
</g>
</g>
<defs>
<clipPath id="clip0_91_46">
<rect width="48" height="48" fill="white"/>
</clipPath>
<clipPath id="clip1_91_46">
<rect width="96" height="96" fill="white" transform="translate(-24 -24)"/>
</clipPath>
<clipPath id="clip2_91_46">
<rect width="96" height="96" fill="white" transform="translate(-24 -24)"/>
</clipPath>
</defs>
</svg>
