<svg width="48" height="48" viewBox="0 0 48 48" fill="none" xmlns="http://www.w3.org/2000/svg">
<g clip-path="url(#clip0_91_41)">
<path d="M36 0H12C5.37258 0 0 5.37258 0 12V36C0 42.6274 5.37258 48 12 48H36C42.6274 48 48 42.6274 48 36V12C48 5.37258 42.6274 0 36 0Z" fill="#66F5EC"/>
<g clip-path="url(#clip1_91_41)">
<g clip-path="url(#clip2_91_41)">
<path d="M30.92 16.1363C30.72 15.4725 30.16 15 29.5 15H18.5C17.84 15 17.29 15.4725 17.08 16.1363L15 22.875V31.875C15 32.4937 15.45 33 16 33H17C17.55 33 18 32.4937 18 31.875V30.75H30V31.875C30 32.4937 30.45 33 31 33H32C32.55 33 33 32.4937 33 31.875V22.875L30.92 16.1363ZM18.5 27.375C17.67 27.375 17 26.6213 17 25.6875C17 24.7537 17.67 24 18.5 24C19.33 24 20 24.7537 20 25.6875C20 26.6213 19.33 27.375 18.5 27.375ZM29.5 27.375C28.67 27.375 28 26.6213 28 25.6875C28 24.7537 28.67 24 29.5 24C30.33 24 31 24.7537 31 25.6875C31 26.6213 30.33 27.375 29.5 27.375ZM17 21.75L18.5 16.6875H29.5L31 21.75H17Z" fill="black"/>
</g>
</g>
</g>
<defs>
<clipPath id="clip0_91_41">
<rect width="48" height="48" fill="white"/>
</clipPath>
<clipPath id="clip1_91_41">
<rect width="96" height="96" fill="white" transform="translate(-24 -24)"/>
</clipPath>
<clipPath id="clip2_91_41">
<rect width="96" height="96" fill="white" transform="translate(-24 -24)"/>
</clipPath>
</defs>
</svg>
