<svg width="48" height="48" viewBox="0 0 48 48" fill="none" xmlns="http://www.w3.org/2000/svg">
<g clip-path="url(#clip0_91_36)">
<path d="M36 0H12C5.37258 0 0 5.37258 0 12V36C0 42.6274 5.37258 48 12 48H36C42.6274 48 48 42.6274 48 36V12C48 5.37258 42.6274 0 36 0Z" fill="#FFB6C1"/>
<g clip-path="url(#clip1_91_36)">
<path d="M17 27H15V31C15 32.1 15.9 33 17 33H21V31H17V27ZM17 17H21V15H17C15.9 15 15 15.9 15 17V21H17V17ZM31 15H27V17H31V21H33V17C33 15.9 32.1 15 31 15ZM31 31H27V33H31C32.1 33 33 32.1 33 31V27H31V31ZM24 21C22.34 21 21 22.34 21 24C21 25.66 22.34 27 24 27C25.66 27 27 25.66 27 24C27 22.34 25.66 21 24 21Z" fill="black"/>
</g>
</g>
<defs>
<clipPath id="clip0_91_36">
<rect width="48" height="48" fill="white"/>
</clipPath>
<clipPath id="clip1_91_36">
<rect width="96" height="96" fill="white" transform="translate(-24 -24)"/>
</clipPath>
</defs>
</svg>
