<svg width="257" height="53" viewBox="0 0 257 53" fill="none" xmlns="http://www.w3.org/2000/svg">
<path fill-rule="evenodd" clip-rule="evenodd" d="M43.3148 29.2966L44.2943 31.5172L39.14 33.7927L47 38.3307L45.6295 40.7031L37.7732 36.1652L38.3803 41.7645L35.9688 42.027L35.1643 34.6596L30.7325 32.101L31.6393 40.4386L24.8705 35.4845V40.6026L30.8517 44.9804L29.4178 46.9393L24.8704 43.6126V52.6876H22.1331V43.6126L17.5878 46.9393L16.152 44.9804L22.1331 40.6043V35.4826L15.3625 40.4376L16.2695 32.1009L11.8375 34.6595L11.0368 42.0269L8.62162 41.7644L9.23237 36.1651L1.3742 40.703L0 38.3306L7.86187 33.7926L2.70569 31.5172L3.687 29.2966L10.4669 32.288L14.9026 29.7275L9.74813 27.4558L7.22684 26.3441L14.9026 22.9597L10.4651 20.4012L3.687 23.3927L2.70744 21.1674L7.86177 18.8929L0.00360167 14.3596L1.3741 11.9883L9.23031 16.5243L8.62152 10.924L11.0367 10.6605L11.8393 18.026L16.2692 20.5865L15.3642 12.2517L22.133 17.205V12.0842L16.1519 7.70638L17.5877 5.74552L22.133 9.07492V0H24.8703V9.07492L29.4177 5.74552L30.8516 7.70638L24.8704 12.0842V17.205L31.6392 12.2499L30.7305 20.5875L35.1642 18.0262L35.965 10.6606L38.3802 10.9241L37.7713 16.5245L45.6294 11.9884L46.9999 14.3597L39.1417 18.893L44.2961 21.1675L43.3148 23.3928L36.5348 20.4013L32.1011 22.9598L39.7768 26.3424L32.0993 29.7258L36.5348 32.288L43.3148 29.2966ZM17.506 24.4672L13.2492 26.3442L17.5079 28.2241L20.761 26.3442L17.506 24.4672ZM18.3738 35.2228L22.1333 32.4724V28.7166L18.8784 30.5964L18.3738 35.2228ZM18.8784 22.093L22.1333 23.971V20.2151L18.3738 17.4656L18.8784 22.093ZM28.6302 17.4656L24.8706 20.2151V23.971L28.1237 22.093L28.6302 17.4656ZM24.8706 28.7166V32.4724L28.6302 35.2228L28.1237 30.5964L24.8706 28.7166ZM26.2411 26.3442L29.4941 28.2241L33.7547 26.3442L29.4961 24.4672L26.2411 26.3442ZM61.56 36.7C63.12 37.14 64.73 37.36 66.39 37.36C68.31 37.36 69.94 37.07 71.28 36.49C72.62 35.91 73.62 35.13 74.28 34.15C74.96 33.15 75.3 32.05 75.3 30.85C75.3 29.45 74.93 28.34 74.19 27.52C73.47 26.7 72.6 26.1 71.58 25.72C70.56 25.34 69.25 24.96 67.65 24.58C66.11 24.24 64.96 23.9 64.2 23.56C63.46 23.2 63.09 22.66 63.09 21.94C63.09 21.22 63.41 20.64 64.05 20.2C64.71 19.76 65.72 19.54 67.08 19.54C69.02 19.54 70.96 20.09 72.9 21.19L74.4 17.5C73.44 16.9 72.32 16.44 71.04 16.12C69.76 15.8 68.45 15.64 67.11 15.64C65.19 15.64 63.56 15.93 62.22 16.51C60.9 17.09 59.91 17.88 59.25 18.88C58.59 19.86 58.26 20.96 58.26 22.18C58.26 23.58 58.62 24.7 59.34 25.54C60.08 26.38 60.96 26.99 61.98 27.37C63 27.75 64.31 28.13 65.91 28.51C66.95 28.75 67.77 28.97 68.37 29.17C68.99 29.37 69.49 29.64 69.87 29.98C70.27 30.3 70.47 30.71 70.47 31.21C70.47 31.89 70.14 32.44 69.48 32.86C68.82 33.26 67.8 33.46 66.42 33.46C65.18 33.46 63.94 33.26 62.7 32.86C61.46 32.46 60.39 31.93 59.49 31.27L57.84 34.93C58.78 35.65 60.02 36.24 61.56 36.7ZM92.9309 22.42C91.7109 21.22 90.1009 20.62 88.1009 20.62C87.0009 20.62 85.9909 20.81 85.0709 21.19C84.1509 21.55 83.3809 22.07 82.7609 22.75V20.86H78.2909V37H82.9709V29.02C82.9709 27.58 83.3209 26.5 84.0209 25.78C84.7209 25.04 85.6609 24.67 86.8409 24.67C87.9009 24.67 88.7109 24.99 89.2709 25.63C89.8309 26.25 90.1109 27.2 90.1109 28.48V37H94.7909V27.76C94.7909 25.4 94.1709 23.62 92.9309 22.42ZM102.299 36.19C103.659 36.89 105.189 37.24 106.889 37.24C108.589 37.24 110.109 36.89 111.449 36.19C112.789 35.47 113.839 34.48 114.599 33.22C115.359 31.96 115.739 30.53 115.739 28.93C115.739 27.33 115.359 25.9 114.599 24.64C113.839 23.38 112.789 22.4 111.449 21.7C110.109 20.98 108.589 20.62 106.889 20.62C105.189 20.62 103.659 20.98 102.299 21.7C100.959 22.4 99.9088 23.38 99.1488 24.64C98.3888 25.9 98.0088 27.33 98.0088 28.93C98.0088 30.53 98.3888 31.96 99.1488 33.22C99.9088 34.48 100.959 35.47 102.299 36.19ZM109.829 32.2C109.069 33 108.089 33.4 106.889 33.4C105.689 33.4 104.699 33 103.919 32.2C103.139 31.38 102.749 30.29 102.749 28.93C102.749 27.57 103.139 26.49 103.919 25.69C104.699 24.87 105.689 24.46 106.889 24.46C108.089 24.46 109.069 24.87 109.829 25.69C110.609 26.49 110.999 27.57 110.999 28.93C110.999 30.29 110.609 31.38 109.829 32.2ZM144.397 29.77V20.86H139.717V29.41C139.717 30.75 139.487 31.74 139.027 32.38C138.567 33 137.847 33.31 136.867 33.31C135.867 33.31 135.127 32.99 134.647 32.35C134.167 31.71 133.927 30.73 133.927 29.41V20.86H129.247V29.41C129.247 30.73 129.007 31.71 128.527 32.35C128.047 32.99 127.307 33.31 126.307 33.31C125.327 33.31 124.607 33 124.147 32.38C123.687 31.74 123.457 30.75 123.457 29.41V20.86H118.777V29.77C118.777 32.15 119.417 33.99 120.697 35.29C121.977 36.59 123.827 37.24 126.247 37.24C127.447 37.24 128.487 37.06 129.367 36.7C130.247 36.34 130.987 35.76 131.587 34.96C132.187 35.76 132.927 36.34 133.807 36.7C134.707 37.06 135.737 37.24 136.897 37.24C139.297 37.24 141.147 36.59 142.447 35.29C143.747 33.99 144.397 32.15 144.397 29.77ZM151.753 36.19C153.133 36.89 154.683 37.24 156.403 37.24C158.103 37.24 159.583 36.88 160.843 36.16C162.123 35.44 163.053 34.44 163.633 33.16L160.003 31.18C159.183 32.66 157.973 33.4 156.373 33.4C155.153 33.4 154.143 33 153.343 32.2C152.543 31.4 152.143 30.31 152.143 28.93C152.143 27.55 152.543 26.46 153.343 25.66C154.143 24.86 155.153 24.46 156.373 24.46C157.953 24.46 159.163 25.2 160.003 26.68L163.633 24.73C163.053 23.41 162.123 22.4 160.843 21.7C159.583 20.98 158.103 20.62 156.403 20.62C154.683 20.62 153.133 20.98 151.753 21.7C150.393 22.4 149.323 23.38 148.543 24.64C147.783 25.9 147.403 27.33 147.403 28.93C147.403 30.53 147.783 31.96 148.543 33.22C149.323 34.48 150.393 35.47 151.753 36.19ZM173.048 21.22C172.108 21.62 171.358 22.21 170.798 22.99V20.86H166.328V37H171.008V29.38C171.008 27.88 171.388 26.76 172.148 26.02C172.908 25.26 173.958 24.88 175.298 24.88C175.478 24.88 175.828 24.9 176.348 24.94V20.62C175.108 20.62 174.008 20.82 173.048 21.22ZM195.508 34.3V20.86H190.828V27.85C190.828 29.29 190.488 30.38 189.808 31.12C189.128 31.84 188.228 32.2 187.108 32.2C184.928 32.2 183.838 30.89 183.838 28.27V20.86H179.158V28.96C179.158 31.38 179.778 33.2 181.018 34.42C182.258 35.62 183.938 36.22 186.058 36.22C186.998 36.22 187.878 36.06 188.698 35.74C189.518 35.42 190.228 34.96 190.828 34.36V34.9C190.828 36.38 190.468 37.48 189.748 38.2C189.028 38.92 187.888 39.28 186.328 39.28C185.328 39.28 184.338 39.12 183.358 38.8C182.378 38.48 181.548 38.04 180.868 37.48L179.008 40.84C179.928 41.56 181.058 42.11 182.398 42.49C183.758 42.87 185.198 43.06 186.718 43.06C189.578 43.06 191.758 42.34 193.258 40.9C194.758 39.46 195.508 37.26 195.508 34.3ZM201.344 36.76C202.624 37.08 203.934 37.24 205.274 37.24C206.854 37.24 208.214 37.03 209.354 36.61C210.514 36.17 211.394 35.56 211.994 34.78C212.594 34 212.894 33.11 212.894 32.11C212.894 30.93 212.584 30.01 211.964 29.35C211.344 28.69 210.614 28.24 209.774 28C208.934 27.74 207.854 27.5 206.534 27.28C205.354 27.1 204.494 26.91 203.954 26.71C203.414 26.51 203.144 26.16 203.144 25.66C203.144 25.22 203.394 24.86 203.894 24.58C204.394 24.3 205.144 24.16 206.144 24.16C207.824 24.16 209.374 24.56 210.794 25.36L212.354 22.03C211.614 21.59 210.674 21.25 209.534 21.01C208.414 20.75 207.284 20.62 206.144 20.62C204.604 20.62 203.264 20.84 202.124 21.28C201.004 21.72 200.144 22.34 199.544 23.14C198.964 23.92 198.674 24.82 198.674 25.84C198.674 27.06 198.984 28 199.604 28.66C200.244 29.32 200.994 29.78 201.854 30.04C202.714 30.3 203.804 30.53 205.124 30.73C206.244 30.87 207.074 31.04 207.614 31.24C208.154 31.44 208.424 31.77 208.424 32.23C208.424 33.21 207.434 33.7 205.454 33.7C204.474 33.7 203.474 33.56 202.454 33.28C201.434 32.98 200.564 32.6 199.844 32.14L198.284 35.5C199.044 36 200.064 36.42 201.344 36.76ZM223.791 37C224.471 36.82 225.041 36.56 225.501 36.22L224.271 32.92C223.711 33.32 223.071 33.52 222.351 33.52C221.711 33.52 221.221 33.34 220.881 32.98C220.541 32.6 220.371 32.07 220.371 31.39V24.82H224.361V21.22H220.371V17.29H215.691V31.45C215.691 33.35 216.211 34.79 217.251 35.77C218.291 36.75 219.781 37.24 221.721 37.24C222.441 37.24 223.131 37.16 223.791 37ZM244.026 37V20.86H239.346V22.57C238.186 21.27 236.576 20.62 234.516 20.62C232.996 20.62 231.616 20.96 230.376 21.64C229.156 22.32 228.196 23.29 227.496 24.55C226.796 25.81 226.446 27.27 226.446 28.93C226.446 30.59 226.796 32.05 227.496 33.31C228.196 34.57 229.156 35.54 230.376 36.22C231.616 36.9 232.996 37.24 234.516 37.24C236.716 37.24 238.396 36.54 239.556 35.14V37H244.026ZM238.266 32.2C237.486 33 236.506 33.4 235.326 33.4C234.126 33.4 233.136 33 232.356 32.2C231.576 31.38 231.186 30.29 231.186 28.93C231.186 27.57 231.576 26.49 232.356 25.69C233.136 24.87 234.126 24.46 235.326 24.46C236.506 24.46 237.486 24.87 238.266 25.69C239.046 26.49 239.436 27.57 239.436 28.93C239.436 30.29 239.046 31.38 238.266 32.2ZM249.889 35.8C250.909 36.76 252.329 37.24 254.149 37.24C254.989 37.24 255.799 37.11 256.579 36.85L256.369 33.22C256.229 33.3 256.029 33.37 255.769 33.43C255.529 33.49 255.289 33.52 255.049 33.52C254.409 33.52 253.909 33.34 253.549 32.98C253.209 32.6 253.039 32.07 253.039 31.39V14.74H248.359V31.66C248.359 33.44 248.869 34.82 249.889 35.8Z" fill="url(#paint0_diamond_249_58)"/>
<path fill-rule="evenodd" clip-rule="evenodd" d="M43.3148 29.2966L44.2943 31.5172L39.14 33.7927L47 38.3307L45.6295 40.7031L37.7732 36.1652L38.3803 41.7645L35.9688 42.027L35.1643 34.6596L30.7325 32.101L31.6393 40.4386L24.8705 35.4845V40.6026L30.8517 44.9804L29.4178 46.9393L24.8704 43.6126V52.6876H22.1331V43.6126L17.5878 46.9393L16.152 44.9804L22.1331 40.6043V35.4826L15.3625 40.4376L16.2695 32.1009L11.8375 34.6595L11.0368 42.0269L8.62162 41.7644L9.23237 36.1651L1.3742 40.703L0 38.3306L7.86187 33.7926L2.70569 31.5172L3.687 29.2966L10.4669 32.288L14.9026 29.7275L9.74813 27.4558L7.22684 26.3441L14.9026 22.9597L10.4651 20.4012L3.687 23.3927L2.70744 21.1674L7.86177 18.8929L0.00360167 14.3596L1.3741 11.9883L9.23031 16.5243L8.62152 10.924L11.0367 10.6605L11.8393 18.026L16.2692 20.5865L15.3642 12.2517L22.133 17.205V12.0842L16.1519 7.70638L17.5877 5.74552L22.133 9.07492V0H24.8703V9.07492L29.4177 5.74552L30.8516 7.70638L24.8704 12.0842V17.205L31.6392 12.2499L30.7305 20.5875L35.1642 18.0262L35.965 10.6606L38.3802 10.9241L37.7713 16.5245L45.6294 11.9884L46.9999 14.3597L39.1417 18.893L44.2961 21.1675L43.3148 23.3928L36.5348 20.4013L32.1011 22.9598L39.7768 26.3424L32.0993 29.7258L36.5348 32.288L43.3148 29.2966ZM17.506 24.4672L13.2492 26.3442L17.5079 28.2241L20.761 26.3442L17.506 24.4672ZM18.3738 35.2228L22.1333 32.4724V28.7166L18.8784 30.5964L18.3738 35.2228ZM18.8784 22.093L22.1333 23.971V20.2151L18.3738 17.4656L18.8784 22.093ZM28.6302 17.4656L24.8706 20.2151V23.971L28.1237 22.093L28.6302 17.4656ZM24.8706 28.7166V32.4724L28.6302 35.2228L28.1237 30.5964L24.8706 28.7166ZM26.2411 26.3442L29.4941 28.2241L33.7547 26.3442L29.4961 24.4672L26.2411 26.3442ZM61.56 36.7C63.12 37.14 64.73 37.36 66.39 37.36C68.31 37.36 69.94 37.07 71.28 36.49C72.62 35.91 73.62 35.13 74.28 34.15C74.96 33.15 75.3 32.05 75.3 30.85C75.3 29.45 74.93 28.34 74.19 27.52C73.47 26.7 72.6 26.1 71.58 25.72C70.56 25.34 69.25 24.96 67.65 24.58C66.11 24.24 64.96 23.9 64.2 23.56C63.46 23.2 63.09 22.66 63.09 21.94C63.09 21.22 63.41 20.64 64.05 20.2C64.71 19.76 65.72 19.54 67.08 19.54C69.02 19.54 70.96 20.09 72.9 21.19L74.4 17.5C73.44 16.9 72.32 16.44 71.04 16.12C69.76 15.8 68.45 15.64 67.11 15.64C65.19 15.64 63.56 15.93 62.22 16.51C60.9 17.09 59.91 17.88 59.25 18.88C58.59 19.86 58.26 20.96 58.26 22.18C58.26 23.58 58.62 24.7 59.34 25.54C60.08 26.38 60.96 26.99 61.98 27.37C63 27.75 64.31 28.13 65.91 28.51C66.95 28.75 67.77 28.97 68.37 29.17C68.99 29.37 69.49 29.64 69.87 29.98C70.27 30.3 70.47 30.71 70.47 31.21C70.47 31.89 70.14 32.44 69.48 32.86C68.82 33.26 67.8 33.46 66.42 33.46C65.18 33.46 63.94 33.26 62.7 32.86C61.46 32.46 60.39 31.93 59.49 31.27L57.84 34.93C58.78 35.65 60.02 36.24 61.56 36.7ZM92.9309 22.42C91.7109 21.22 90.1009 20.62 88.1009 20.62C87.0009 20.62 85.9909 20.81 85.0709 21.19C84.1509 21.55 83.3809 22.07 82.7609 22.75V20.86H78.2909V37H82.9709V29.02C82.9709 27.58 83.3209 26.5 84.0209 25.78C84.7209 25.04 85.6609 24.67 86.8409 24.67C87.9009 24.67 88.7109 24.99 89.2709 25.63C89.8309 26.25 90.1109 27.2 90.1109 28.48V37H94.7909V27.76C94.7909 25.4 94.1709 23.62 92.9309 22.42ZM102.299 36.19C103.659 36.89 105.189 37.24 106.889 37.24C108.589 37.24 110.109 36.89 111.449 36.19C112.789 35.47 113.839 34.48 114.599 33.22C115.359 31.96 115.739 30.53 115.739 28.93C115.739 27.33 115.359 25.9 114.599 24.64C113.839 23.38 112.789 22.4 111.449 21.7C110.109 20.98 108.589 20.62 106.889 20.62C105.189 20.62 103.659 20.98 102.299 21.7C100.959 22.4 99.9088 23.38 99.1488 24.64C98.3888 25.9 98.0088 27.33 98.0088 28.93C98.0088 30.53 98.3888 31.96 99.1488 33.22C99.9088 34.48 100.959 35.47 102.299 36.19ZM109.829 32.2C109.069 33 108.089 33.4 106.889 33.4C105.689 33.4 104.699 33 103.919 32.2C103.139 31.38 102.749 30.29 102.749 28.93C102.749 27.57 103.139 26.49 103.919 25.69C104.699 24.87 105.689 24.46 106.889 24.46C108.089 24.46 109.069 24.87 109.829 25.69C110.609 26.49 110.999 27.57 110.999 28.93C110.999 30.29 110.609 31.38 109.829 32.2ZM144.397 29.77V20.86H139.717V29.41C139.717 30.75 139.487 31.74 139.027 32.38C138.567 33 137.847 33.31 136.867 33.31C135.867 33.31 135.127 32.99 134.647 32.35C134.167 31.71 133.927 30.73 133.927 29.41V20.86H129.247V29.41C129.247 30.73 129.007 31.71 128.527 32.35C128.047 32.99 127.307 33.31 126.307 33.31C125.327 33.31 124.607 33 124.147 32.38C123.687 31.74 123.457 30.75 123.457 29.41V20.86H118.777V29.77C118.777 32.15 119.417 33.99 120.697 35.29C121.977 36.59 123.827 37.24 126.247 37.24C127.447 37.24 128.487 37.06 129.367 36.7C130.247 36.34 130.987 35.76 131.587 34.96C132.187 35.76 132.927 36.34 133.807 36.7C134.707 37.06 135.737 37.24 136.897 37.24C139.297 37.24 141.147 36.59 142.447 35.29C143.747 33.99 144.397 32.15 144.397 29.77ZM151.753 36.19C153.133 36.89 154.683 37.24 156.403 37.24C158.103 37.24 159.583 36.88 160.843 36.16C162.123 35.44 163.053 34.44 163.633 33.16L160.003 31.18C159.183 32.66 157.973 33.4 156.373 33.4C155.153 33.4 154.143 33 153.343 32.2C152.543 31.4 152.143 30.31 152.143 28.93C152.143 27.55 152.543 26.46 153.343 25.66C154.143 24.86 155.153 24.46 156.373 24.46C157.953 24.46 159.163 25.2 160.003 26.68L163.633 24.73C163.053 23.41 162.123 22.4 160.843 21.7C159.583 20.98 158.103 20.62 156.403 20.62C154.683 20.62 153.133 20.98 151.753 21.7C150.393 22.4 149.323 23.38 148.543 24.64C147.783 25.9 147.403 27.33 147.403 28.93C147.403 30.53 147.783 31.96 148.543 33.22C149.323 34.48 150.393 35.47 151.753 36.19ZM173.048 21.22C172.108 21.62 171.358 22.21 170.798 22.99V20.86H166.328V37H171.008V29.38C171.008 27.88 171.388 26.76 172.148 26.02C172.908 25.26 173.958 24.88 175.298 24.88C175.478 24.88 175.828 24.9 176.348 24.94V20.62C175.108 20.62 174.008 20.82 173.048 21.22ZM195.508 34.3V20.86H190.828V27.85C190.828 29.29 190.488 30.38 189.808 31.12C189.128 31.84 188.228 32.2 187.108 32.2C184.928 32.2 183.838 30.89 183.838 28.27V20.86H179.158V28.96C179.158 31.38 179.778 33.2 181.018 34.42C182.258 35.62 183.938 36.22 186.058 36.22C186.998 36.22 187.878 36.06 188.698 35.74C189.518 35.42 190.228 34.96 190.828 34.36V34.9C190.828 36.38 190.468 37.48 189.748 38.2C189.028 38.92 187.888 39.28 186.328 39.28C185.328 39.28 184.338 39.12 183.358 38.8C182.378 38.48 181.548 38.04 180.868 37.48L179.008 40.84C179.928 41.56 181.058 42.11 182.398 42.49C183.758 42.87 185.198 43.06 186.718 43.06C189.578 43.06 191.758 42.34 193.258 40.9C194.758 39.46 195.508 37.26 195.508 34.3ZM201.344 36.76C202.624 37.08 203.934 37.24 205.274 37.24C206.854 37.24 208.214 37.03 209.354 36.61C210.514 36.17 211.394 35.56 211.994 34.78C212.594 34 212.894 33.11 212.894 32.11C212.894 30.93 212.584 30.01 211.964 29.35C211.344 28.69 210.614 28.24 209.774 28C208.934 27.74 207.854 27.5 206.534 27.28C205.354 27.1 204.494 26.91 203.954 26.71C203.414 26.51 203.144 26.16 203.144 25.66C203.144 25.22 203.394 24.86 203.894 24.58C204.394 24.3 205.144 24.16 206.144 24.16C207.824 24.16 209.374 24.56 210.794 25.36L212.354 22.03C211.614 21.59 210.674 21.25 209.534 21.01C208.414 20.75 207.284 20.62 206.144 20.62C204.604 20.62 203.264 20.84 202.124 21.28C201.004 21.72 200.144 22.34 199.544 23.14C198.964 23.92 198.674 24.82 198.674 25.84C198.674 27.06 198.984 28 199.604 28.66C200.244 29.32 200.994 29.78 201.854 30.04C202.714 30.3 203.804 30.53 205.124 30.73C206.244 30.87 207.074 31.04 207.614 31.24C208.154 31.44 208.424 31.77 208.424 32.23C208.424 33.21 207.434 33.7 205.454 33.7C204.474 33.7 203.474 33.56 202.454 33.28C201.434 32.98 200.564 32.6 199.844 32.14L198.284 35.5C199.044 36 200.064 36.42 201.344 36.76ZM223.791 37C224.471 36.82 225.041 36.56 225.501 36.22L224.271 32.92C223.711 33.32 223.071 33.52 222.351 33.52C221.711 33.52 221.221 33.34 220.881 32.98C220.541 32.6 220.371 32.07 220.371 31.39V24.82H224.361V21.22H220.371V17.29H215.691V31.45C215.691 33.35 216.211 34.79 217.251 35.77C218.291 36.75 219.781 37.24 221.721 37.24C222.441 37.24 223.131 37.16 223.791 37ZM244.026 37V20.86H239.346V22.57C238.186 21.27 236.576 20.62 234.516 20.62C232.996 20.62 231.616 20.96 230.376 21.64C229.156 22.32 228.196 23.29 227.496 24.55C226.796 25.81 226.446 27.27 226.446 28.93C226.446 30.59 226.796 32.05 227.496 33.31C228.196 34.57 229.156 35.54 230.376 36.22C231.616 36.9 232.996 37.24 234.516 37.24C236.716 37.24 238.396 36.54 239.556 35.14V37H244.026ZM238.266 32.2C237.486 33 236.506 33.4 235.326 33.4C234.126 33.4 233.136 33 232.356 32.2C231.576 31.38 231.186 30.29 231.186 28.93C231.186 27.57 231.576 26.49 232.356 25.69C233.136 24.87 234.126 24.46 235.326 24.46C236.506 24.46 237.486 24.87 238.266 25.69C239.046 26.49 239.436 27.57 239.436 28.93C239.436 30.29 239.046 31.38 238.266 32.2ZM249.889 35.8C250.909 36.76 252.329 37.24 254.149 37.24C254.989 37.24 255.799 37.11 256.579 36.85L256.369 33.22C256.229 33.3 256.029 33.37 255.769 33.43C255.529 33.49 255.289 33.52 255.049 33.52C254.409 33.52 253.909 33.34 253.549 32.98C253.209 32.6 253.039 32.07 253.039 31.39V14.74H248.359V31.66C248.359 33.44 248.869 34.82 249.889 35.8Z" fill="url(#paint1_linear_249_58)"/>
<defs>
<radialGradient id="paint0_diamond_249_58" cx="0" cy="0" r="1" gradientUnits="userSpaceOnUse" gradientTransform="translate(23.5 26.3438) rotate(91.0931) scale(38.2393 34.1114)">
<stop stop-color="#B6E5ED"/>
<stop offset="0.4375" stop-color="#FF6442"/>
<stop offset="0.875" stop-color="#82B2E8"/>
<stop offset="0.9375" stop-color="#A1D0FC"/>
<stop offset="1" stop-color="#66F5EC" stop-opacity="0.68"/>
</radialGradient>
<linearGradient id="paint1_linear_249_58" x1="23.5" y1="0" x2="23.5" y2="52.6876" gradientUnits="userSpaceOnUse">
<stop stop-color="#FF6442"/>
<stop offset="0.489999" stop-color="#FFB6C1"/>
<stop offset="1" stop-color="#66F5EC"/>
</linearGradient>
</defs>
</svg>
