<svg width="48" height="48" viewBox="0 0 48 48" fill="none" xmlns="http://www.w3.org/2000/svg">
<path d="M45.2367 28.7131L44.2363 26.6901L37.3122 29.4154L32.7823 27.0811L40.6231 23.9987L32.7841 20.9171L37.3122 18.5862L44.2363 21.3115L45.2385 19.2843L39.9745 17.2121L47.9999 13.0822L46.6002 10.9218L38.575 15.0543L39.1968 9.95222L36.7303 9.71213L35.9124 16.4224L31.3844 18.7558L32.3124 11.16L25.3995 15.6743V11.0091L31.508 7.02075L30.0436 5.23434L25.3994 8.26753V0H22.6039V8.26753L17.9619 5.23434L16.4956 7.02075L22.6039 11.0091V15.6743L15.6911 11.1617L16.6154 18.755L12.0912 16.4223L11.2715 9.71203L8.80496 9.95212L9.4267 15.0542L1.40333 10.9217L0.00367831 13.0821L8.02904 17.212L2.76505 19.2842L3.76545 21.3114L10.6877 18.5861L15.2196 20.917L7.3806 24.0003L9.95554 25.0131L15.2196 27.0827L10.6896 29.4154L3.76545 26.6901L2.76326 28.7131L8.02915 30.7861L0 34.9204L1.40344 37.0817L9.4288 32.9475L8.80506 38.0486L11.2716 38.2878L12.0894 31.5758L16.6156 29.2449L15.6894 36.8399L22.604 32.3258V36.9918L16.4957 40.9785L17.962 42.7631L22.604 39.7324V48H25.3995V39.7324L30.0437 42.7631L31.5081 40.9785L25.3997 36.9902V32.3274L32.3125 36.8408L31.3864 29.245L35.9125 31.5759L36.7341 38.2879L39.1969 38.0487L38.5769 32.9476L46.6003 37.0818L48 34.9205L39.9727 30.7862L45.2367 28.7131ZM13.5311 24.0004L17.8784 22.2904L21.2027 24.0004L17.8804 25.713L13.5311 24.0004ZM22.6042 29.5834L18.7647 32.089L19.2801 27.8742L22.6042 26.1617V29.5834ZM22.6042 21.8383L19.2801 20.1274L18.7647 15.9117L22.6042 18.4165V21.8383ZM25.3998 18.4165L29.2394 15.9117L28.7221 20.1274L25.3998 21.8383V18.4165ZM25.3998 29.5834V26.1617L28.7221 27.8742L29.2394 32.089L25.3998 29.5834ZM30.1217 25.713L26.7994 24.0004L30.1237 22.2904L34.4729 24.0004L30.1217 25.713Z" fill="white"/>
</svg>
